<?xml version="1.0" encoding="utf-8"?>
<!-- Generator: Adobe Illustrator 26.2.1, SVG Export Plug-In . SVG Version: 6.00 Build 0)  -->
<svg version="1.1" id="Layer_1" xmlns="http://www.w3.org/2000/svg" xmlns:xlink="http://www.w3.org/1999/xlink" x="0px" y="0px"
	 width="435.5px" height="113.8px" viewBox="0 0 435.5 113.8" style="enable-background:new 0 0 435.5 113.8;" xml:space="preserve"
	>
<style type="text/css">
	.st0{fill:url(#SVGID_1_);}
	.st1{fill:url(#SVGID_00000060714236283336436740000012165199764159594676_);}
	.st2{fill:#FFFFFF;}
	.st3{fill:url(#SVGID_00000117676273289031915570000007337032735197337243_);}
	.st4{fill:url(#SVGID_00000034783717221445088740000004717251064617269158_);}
</style>
<linearGradient id="SVGID_1_" gradientUnits="userSpaceOnUse" x1="264.2229" y1="93.8124" x2="301.8265" y2="35.4162">
	<stop  offset="1.481436e-07" style="stop-color:#0083B5"/>
	<stop  offset="0.4173" style="stop-color:#00FFFF"/>
	<stop  offset="0.9952" style="stop-color:#6FF12D"/>
</linearGradient>
<path class="st0" d="M284,78.5c2.5-0.5,4.5-1.6,6.2-3.1c2.5-2.3,2.8-5.5,2.8-9.5V48.2c0-4-0.4-7.1-2.8-9.5c-1.7-1.6-3.7-2.6-6.2-3.1
	v-8.5c4,0.6,7.4,2.1,10,4.6c3.4,3.2,6.4,7.6,6.4,13.1V69c0,5.5-3,9.8-6.4,13.1c-2.6,2.5-6,4-10,4.6V78.5z"/>
<linearGradient id="SVGID_00000175323035056965818540000002857480534814513585_" gradientUnits="userSpaceOnUse" x1="243.7969" y1="80.6594" x2="281.4005" y2="22.2632">
	<stop  offset="1.481436e-07" style="stop-color:#0083B5"/>
	<stop  offset="0.4173" style="stop-color:#00FFFF"/>
	<stop  offset="0.9952" style="stop-color:#6FF12D"/>
</linearGradient>
<path style="fill:url(#SVGID_00000175323035056965818540000002857480534814513585_);" d="M253.1,31.7c2.6-2.5,6-4,10-4.6v8.5
	c-2.5,0.5-4.5,1.6-6.2,3.1c-2.5,2.3-2.8,5.5-2.8,9.4v17.8c0,4,0.4,7.1,2.8,9.5c1.7,1.6,3.7,2.6,6.2,3.1v8.1c-4-0.6-7.4-2.1-10-4.6
	c-3.4-3.2-6.4-7.6-6.4-13.1V44.7C246.7,39.3,249.7,35,253.1,31.7z"/>
<g>
	<g>
		<g>
			<path class="st2" d="M29.6,86.5c-5.7,0-10.2-1.9-13.7-5.7c-3.5-3.8-5.2-8.8-5.2-15V48.1c0-6.2,1.7-11.3,5.2-15.1
				c3.5-3.8,8-5.7,13.7-5.7c3.7,0,6.9,0.8,9.6,2.3c2.7,1.6,4.7,3.7,6,6.5h0.3V9.6h5.2v75.9h-5.2v-7.8h-0.3c-1.2,2.8-3.2,4.9-6,6.5
				C36.5,85.8,33.3,86.5,29.6,86.5z M30.7,82.1c4.7,0,8.3-1.4,10.9-4.3c2.6-2.9,3.9-6.8,3.9-11.9V48.1c0-5.1-1.3-9.1-3.9-12
				c-2.6-2.9-6.2-4.3-10.9-4.3c-4.6,0-8.2,1.4-10.8,4.3C17.3,39,16,43,16,48.1v17.8c0,5.1,1.3,9,3.9,11.9S26,82.1,30.7,82.1z"/>
			<path class="st2" d="M86.3,86.5c-6.4,0-11.3-1.9-14.9-5.7c-3.6-3.8-5.4-8.8-5.4-15.1V48.1c0-6.3,1.8-11.3,5.4-15.1
				c3.6-3.8,8.6-5.7,14.9-5.7s11.2,1.9,14.8,5.7c3.6,3.8,5.3,8.8,5.3,15.1V58H71.2v7.8c0,5,1.3,8.9,3.9,11.8
				c2.6,2.9,6.4,4.4,11.2,4.4c3.9,0,7.1-0.9,9.6-2.8c2.5-1.9,4.3-4.4,5.2-7.7h5.2c-1,4.6-3.3,8.3-6.8,11
				C96,85.2,91.6,86.5,86.3,86.5z M71.2,53.5h30v-5.4c0-5-1.3-8.9-3.9-11.9c-2.6-2.9-6.3-4.4-11-4.4c-4.8,0-8.6,1.4-11.2,4.3
				c-2.6,2.9-3.9,6.8-3.9,11.9V53.5z"/>
			<path class="st2" d="M143.2,86.4c-4.4,0-8.2-0.7-11.5-2c-3.3-1.4-5.9-3.3-7.7-5.8c-1.8-2.5-2.7-5.4-2.7-8.8h13.1
				c0,2,0.8,3.6,2.4,4.6c1.6,1.1,3.8,1.6,6.6,1.6h4.5c3.2,0,5.7-0.6,7.3-1.8c1.6-1.2,2.4-2.8,2.4-4.9c0-4-2.9-6.4-8.8-7.3l-8-1
				c-12-1.7-17.9-7.4-17.9-17.1c0-5.4,1.8-9.5,5.4-12.3c3.6-2.8,8.9-4.2,15.8-4.2h3.9c6.4,0,11.6,1.4,15.5,4.3
				c3.9,2.9,5.9,6.7,5.9,11.4h-13.1c0-1.7-0.7-3-2.2-3.9c-1.5-0.9-3.5-1.4-6.2-1.4h-3.9c-5.7,0-8.5,2-8.5,6.1c0,3.5,2.5,5.7,7.6,6.4
				l8.1,1.2c6.4,0.9,11.2,2.8,14.3,5.6c3.1,2.8,4.7,6.8,4.7,11.8c0,5.5-1.9,9.7-5.6,12.8c-3.8,3-9.3,4.6-16.6,4.6H143.2z"/>
			<path class="st2" d="M207.9,86.5c-4.8,0-9.1-0.9-12.7-2.8c-3.6-1.8-6.4-4.4-8.4-7.8c-2-3.4-3-7.3-3-11.9V49.7c0-4.6,1-8.5,3-11.9
				c2-3.4,4.8-6,8.4-7.8c3.6-1.8,7.9-2.8,12.7-2.8c7.2,0,12.9,1.9,17.2,5.6c4.3,3.7,6.5,8.8,6.7,15.1h-12.6c-0.2-3-1.3-5.3-3.4-6.9
				c-2-1.6-4.7-2.4-7.9-2.4c-3.5,0-6.2,1-8.2,2.9c-2,1.9-3,4.6-3,8.2v14.4c0,3.5,1,6.3,3,8.2c2,1.9,4.7,2.9,8.2,2.9
				c3.3,0,6-0.8,8-2.4c2-1.6,3.1-3.9,3.3-6.9h12.6c-0.2,6.4-2.5,11.4-6.7,15.1C220.8,84.7,215.1,86.5,207.9,86.5z"/>
			<path class="st2" d="M315.6,104.2V28.3h12.6v10.3h0.2c1-3.6,2.9-6.4,5.5-8.4c2.7-2,6-3,9.9-3c5.6,0,10.1,2,13.5,5.9
				c3.4,4,5.1,9.2,5.1,15.9v15.5c0,6.7-1.7,12.1-5.1,16c-3.4,3.9-7.9,5.9-13.5,5.9c-3.9,0-7.1-1-9.8-3c-2.7-2-4.6-4.8-5.6-8.4h-0.2
				l0.3,13v16H315.6z M339.1,75.3c3.3,0,5.9-1,7.7-2.9c1.8-1.9,2.7-4.7,2.7-8.3V49.7c0-3.6-0.9-6.4-2.7-8.3
				c-1.8-1.9-4.4-2.9-7.7-2.9s-5.9,1-7.8,3c-1.9,2-2.8,4.8-2.8,8.5v13.7c0,3.7,0.9,6.5,2.8,8.5C333.2,74.3,335.8,75.3,339.1,75.3z"
				/>
			<path class="st2" d="M401,86.5c-4.8,0-9.1-0.9-12.6-2.8c-3.6-1.9-6.4-4.5-8.3-7.8c-2-3.4-3-7.3-3-11.8V49.7c0-4.5,1-8.4,3-11.8
				c2-3.4,4.7-6,8.3-7.8c3.6-1.9,7.8-2.8,12.6-2.8c4.8,0,8.9,0.9,12.5,2.8c3.6,1.9,6.3,4.5,8.3,7.8s3,7.3,3,11.8V60h-35.1v4.1
				c0,8.1,3.8,12.2,11.5,12.2c5.9,0,9.4-2,10.5-5.9h12.7c-1,4.9-3.6,8.9-7.8,11.8C412.2,85.1,407.1,86.5,401,86.5z M389.6,49.7v2.2
				l22.6-0.1v-2.2c0-3.9-0.9-7-2.8-9.1c-1.9-2.1-4.7-3.2-8.4-3.2c-3.8,0-6.6,1.1-8.5,3.2C390.5,42.7,389.6,45.8,389.6,49.7z"/>
		</g>
	</g>
</g>
<g>
	
		<linearGradient id="SVGID_00000103947595425660589550000005526308025592261518_" gradientUnits="userSpaceOnUse" x1="249.2748" y1="84.1868" x2="286.8784" y2="25.7906">
		<stop  offset="1.481436e-07" style="stop-color:#0083B5"/>
		<stop  offset="0.4173" style="stop-color:#00FFFF"/>
		<stop  offset="0.9952" style="stop-color:#6FF12D"/>
	</linearGradient>
	<path style="fill:url(#SVGID_00000103947595425660589550000005526308025592261518_);" d="M280.9,50.5l2.8-4.4l-5.7-3l-2.4,4.6
		c-0.4,0.7-1,1.1-1.8,1.1c-0.8,0-1.4-0.4-1.8-1.1l-2.4-4.6l-5.7,3l4,6.3L280.9,50.5z"/>
	
		<linearGradient id="SVGID_00000078009363152260107870000015150860037042020742_" gradientUnits="userSpaceOnUse" x1="254.4131" y1="87.4956" x2="292.0167" y2="29.0994">
		<stop  offset="1.481436e-07" style="stop-color:#0083B5"/>
		<stop  offset="0.4173" style="stop-color:#00FFFF"/>
		<stop  offset="0.9952" style="stop-color:#6FF12D"/>
	</linearGradient>
	<path style="fill:url(#SVGID_00000078009363152260107870000015150860037042020742_);" d="M288.1,53.7l-28.3,0.2v5.7l8.9,0l-4.8,7.7
		l5.7,3l2.4-4.6c0.4-0.7,1-1.1,1.8-1.1c0.8,0,1.4,0.4,1.8,1.1l2.4,4.6l5.7-3l-3.9-6.2l-7.4-1.4l15.7-0.1V53.7z"/>
</g>
</svg>
