<?xml version="1.0" encoding="UTF-8" standalone="no"?>
<!-- Generator: Adobe Illustrator 22.0.1, SVG Export Plug-In . SVG Version: 6.00 Build 0)  -->

<svg
   xmlns:dc="http://purl.org/dc/elements/1.1/"
   xmlns:cc="http://creativecommons.org/ns#"
   xmlns:rdf="http://www.w3.org/1999/02/22-rdf-syntax-ns#"
   xmlns:svg="http://www.w3.org/2000/svg"
   xmlns="http://www.w3.org/2000/svg"
   xmlns:sodipodi="http://sodipodi.sourceforge.net/DTD/sodipodi-0.dtd"
   xmlns:inkscape="http://www.inkscape.org/namespaces/inkscape"
   version="1.1"
   id="Layer_1"
   x="0px"
   y="0px"
   viewBox="0 0 120 60.000001"
   xml:space="preserve"
   sodipodi:docname="fusionauthio-ar21.svg"
   width="120"
   height="60"
   inkscape:version="0.92.4 (5da689c313, 2019-01-14)"><metadata
   id="metadata49"><rdf:RDF><cc:Work
       rdf:about=""><dc:format>image/svg+xml</dc:format><dc:type
         rdf:resource="http://purl.org/dc/dcmitype/StillImage" /><dc:title></dc:title></cc:Work></rdf:RDF></metadata><defs
   id="defs47" /><sodipodi:namedview
   pagecolor="#ffffff"
   bordercolor="#666666"
   borderopacity="1"
   objecttolerance="10"
   gridtolerance="10"
   guidetolerance="10"
   inkscape:pageopacity="0"
   inkscape:pageshadow="2"
   inkscape:window-width="1920"
   inkscape:window-height="1001"
   id="namedview45"
   showgrid="false"
   inkscape:zoom="4.205303"
   inkscape:cx="94.166817"
   inkscape:cy="80.099998"
   inkscape:window-x="-9"
   inkscape:window-y="-9"
   inkscape:window-maximized="1"
   inkscape:current-layer="Layer_1" />
<style
   type="text/css"
   id="style2">
	.st0{fill:#EC8D53;}
	.st1{fill:#FFFFFF;}
</style>






<g
   id="g944"
   transform="matrix(0.98295521,0,0,0.98295521,0.95993983,0.51134348)"><g
     transform="translate(2,-1.7320577)"
     id="g920"><g
       id="g28"
       style="fill:#ec8d53;fill-opacity:1"
       transform="matrix(0.15722805,0,0,0.15722805,13.258327,18.768605)">
	<path
   class="st1"
   d="m 170.9,49.6 h 44.4 v 10.7 h -32.2 v 18.8 h 30.3 v 10.3 h -30.3 v 29 h -12.2 z"
   id="path16"
   style="fill:#ec8d53;fill-opacity:1"
   inkscape:connector-curvature="0" />
	<path
   class="st1"
   d="m 262.4,118.4 h -11.1 v -7.5 h -0.2 c -1,2.3 -2.8,4.4 -5.4,6.2 -2.6,1.8 -5.6,2.7 -9.1,2.7 -3,0 -5.7,-0.5 -7.8,-1.6 -2.2,-1.1 -4,-2.5 -5.3,-4.2 -1.4,-1.7 -2.4,-3.8 -3.1,-6 -0.6,-2.3 -1,-4.6 -1,-7 V 71.8 h 11.7 v 25.8 c 0,1.4 0.1,2.8 0.3,4.3 0.2,1.5 0.6,2.8 1.3,4 0.6,1.2 1.5,2.2 2.7,3 1.1,0.8 2.6,1.2 4.5,1.2 1.8,0 3.4,-0.4 4.8,-1.1 1.4,-0.7 2.5,-1.7 3.4,-2.9 0.9,-1.2 1.5,-2.5 2,-4 0.5,-1.5 0.7,-3.1 0.7,-4.6 V 71.8 h 11.7 v 46.6 z"
   id="path18"
   style="fill:#ec8d53;fill-opacity:1"
   inkscape:connector-curvature="0" />
	<path
   class="st1"
   d="m 299.5,84.2 c -1,-1.4 -2.5,-2.5 -4.3,-3.5 -1.8,-1 -3.8,-1.5 -5.9,-1.5 -1.9,0 -3.6,0.4 -5.1,1.2 -1.6,0.8 -2.3,2.1 -2.3,3.9 0,1.8 0.9,3.1 2.6,3.8 1.7,0.7 4.2,1.5 7.5,2.3 1.7,0.4 3.5,0.9 5.3,1.6 1.8,0.6 3.4,1.5 4.9,2.6 1.5,1.1 2.6,2.4 3.5,4 0.9,1.6 1.4,3.5 1.4,5.8 0,2.9 -0.5,5.3 -1.6,7.2 -1.1,2 -2.5,3.6 -4.3,4.8 -1.8,1.2 -3.9,2.1 -6.2,2.7 -2.4,0.5 -4.8,0.8 -7.3,0.8 -3.6,0 -7.2,-0.7 -10.6,-2 -3.4,-1.3 -6.3,-3.2 -8.5,-5.7 l 7.7,-7.2 c 1.3,1.7 3,3.1 5.1,4.2 2.1,1.1 4.4,1.7 6.9,1.7 0.8,0 1.7,-0.1 2.6,-0.3 0.9,-0.2 1.7,-0.5 2.4,-0.9 0.7,-0.4 1.3,-1 1.8,-1.7 0.5,-0.7 0.7,-1.6 0.7,-2.6 0,-1.9 -0.9,-3.3 -2.7,-4.2 -1.8,-0.8 -4.5,-1.7 -8,-2.5 -1.7,-0.4 -3.4,-0.9 -5.1,-1.5 -1.7,-0.6 -3.1,-1.4 -4.4,-2.4 -1.3,-1 -2.3,-2.3 -3.1,-3.7 -0.8,-1.5 -1.2,-3.3 -1.2,-5.5 0,-2.6 0.5,-4.8 1.6,-6.7 1.1,-1.9 2.5,-3.4 4.2,-4.6 1.7,-1.2 3.7,-2.1 5.9,-2.7 2.2,-0.6 4.5,-0.9 6.8,-0.9 3.4,0 6.7,0.6 9.9,1.7 3.2,1.2 5.7,2.9 7.6,5.3 z"
   id="path20"
   style="fill:#ec8d53;fill-opacity:1"
   inkscape:connector-curvature="0" />
	<path
   class="st1"
   d="m 313.2,55.9 c 0,-1.9 0.7,-3.5 2.1,-4.9 1.4,-1.4 3.2,-2.1 5.3,-2.1 2.1,0 3.9,0.7 5.4,2 1.5,1.3 2.2,3 2.2,5 0,2 -0.7,3.7 -2.2,5 -1.5,1.3 -3.3,2 -5.4,2 -2.1,0 -3.9,-0.7 -5.3,-2.1 -1.4,-1.3 -2.1,-3 -2.1,-4.9 z m 1.6,15.9 h 11.7 v 46.6 h -11.7 z"
   id="path22"
   style="fill:#ec8d53;fill-opacity:1"
   inkscape:connector-curvature="0" />
	<path
   class="st1"
   d="m 333.1,94.9 c 0,-3.7 0.7,-7 2,-10.1 1.3,-3 3.1,-5.6 5.4,-7.7 2.3,-2.1 5,-3.8 8.1,-5 3.1,-1.2 6.4,-1.7 9.9,-1.7 3.5,0 6.8,0.6 9.9,1.7 3.1,1.2 5.8,2.8 8.1,5 2.3,2.1 4.1,4.7 5.4,7.7 1.3,3 2,6.4 2,10.1 0,3.7 -0.7,7.1 -2,10.1 -1.3,3 -3.1,5.7 -5.4,7.8 -2.3,2.2 -5,3.9 -8.1,5.1 -3.1,1.2 -6.4,1.8 -9.9,1.8 -3.5,0 -6.8,-0.6 -9.9,-1.8 -3.1,-1.2 -5.8,-2.9 -8.1,-5.1 -2.3,-2.2 -4.1,-4.8 -5.4,-7.8 -1.3,-3 -2,-6.4 -2,-10.1 z m 11.9,0 c 0,1.8 0.3,3.6 0.8,5.4 0.6,1.8 1.4,3.4 2.5,4.9 1.1,1.4 2.5,2.6 4.2,3.5 1.7,0.9 3.7,1.4 6,1.4 2.3,0 4.3,-0.5 6,-1.4 1.7,-0.9 3.1,-2.1 4.2,-3.5 1.1,-1.4 1.9,-3 2.5,-4.9 0.6,-1.8 0.8,-3.6 0.8,-5.4 0,-1.8 -0.3,-3.6 -0.8,-5.4 -0.6,-1.8 -1.4,-3.4 -2.5,-4.8 -1.1,-1.4 -2.5,-2.6 -4.2,-3.4 -1.7,-0.9 -3.7,-1.3 -6,-1.3 -2.3,0 -4.3,0.4 -6,1.3 -1.7,0.9 -3.1,2 -4.2,3.4 -1.1,1.4 -1.9,3 -2.5,4.8 -0.6,1.8 -0.8,3.6 -0.8,5.4 z"
   id="path24"
   style="fill:#ec8d53;fill-opacity:1"
   inkscape:connector-curvature="0" />
	<path
   class="st1"
   d="m 390.2,71.8 h 11.1 v 7.5 h 0.2 c 1,-2.3 2.8,-4.4 5.4,-6.2 2.6,-1.8 5.6,-2.7 9.1,-2.7 3,0 5.7,0.5 7.8,1.6 2.2,1.1 3.9,2.5 5.3,4.2 1.4,1.7 2.4,3.8 3.1,6 0.6,2.3 1,4.6 1,7 v 29.1 H 421.5 V 92.6 c 0,-1.4 -0.1,-2.8 -0.3,-4.3 -0.2,-1.5 -0.6,-2.8 -1.3,-4 -0.6,-1.2 -1.5,-2.2 -2.7,-3 -1.1,-0.8 -2.6,-1.2 -4.5,-1.2 -1.9,0 -3.5,0.4 -4.9,1.1 -1.4,0.7 -2.5,1.7 -3.4,2.9 -0.9,1.2 -1.5,2.5 -2,4 -0.5,1.5 -0.7,3.1 -0.7,4.6 v 25.6 H 390 V 71.8 Z"
   id="path26"
   style="fill:#ec8d53;fill-opacity:1"
   inkscape:connector-curvature="0" />
</g><g
       id="g38"
       transform="matrix(0.15722805,0,0,0.15722805,13.258327,18.768605)">
	<path
   class="st0"
   d="m 468.1,49.6 h 10.6 l 29.6,68.8 h -14 l -6.4,-15.7 H 458 l -6.2,15.7 h -13.7 z m 15.5,42.6 -10.6,-28 -10.8,28 z"
   id="path30"
   inkscape:connector-curvature="0"
   style="fill:#ec8d53" />
	<path
   class="st0"
   d="m 552.2,118.4 h -11.1 v -7.5 h -0.2 c -1,2.3 -2.8,4.4 -5.4,6.2 -2.6,1.8 -5.6,2.7 -9.1,2.7 -3,0 -5.7,-0.5 -7.8,-1.6 -2.2,-1.1 -4,-2.5 -5.3,-4.2 -1.4,-1.7 -2.4,-3.8 -3.1,-6 -0.6,-2.3 -1,-4.6 -1,-7 V 71.8 h 11.7 v 25.8 c 0,1.4 0.1,2.8 0.3,4.3 0.2,1.5 0.6,2.8 1.3,4 0.6,1.2 1.5,2.2 2.7,3 1.1,0.8 2.6,1.2 4.5,1.2 1.8,0 3.4,-0.4 4.8,-1.1 1.4,-0.7 2.5,-1.7 3.4,-2.9 0.9,-1.2 1.5,-2.5 2,-4 0.5,-1.5 0.7,-3.1 0.7,-4.6 V 71.8 h 11.7 v 46.6 z"
   id="path32"
   inkscape:connector-curvature="0"
   style="fill:#ec8d53" />
	<path
   class="st0"
   d="m 558,81.1 v -9.3 h 8.2 V 58.3 h 11.5 v 13.5 h 11.7 v 9.3 h -11.7 v 21.7 c 0,2.1 0.4,3.8 1.1,5.1 0.7,1.4 2.4,2 5,2 0.8,0 1.6,-0.1 2.5,-0.2 0.9,-0.2 1.7,-0.4 2.4,-0.7 l 0.4,9.1 c -1,0.4 -2.3,0.7 -3.7,0.9 -1.4,0.2 -2.8,0.3 -4.1,0.3 -3.1,0 -5.6,-0.4 -7.6,-1.3 -1.9,-0.9 -3.5,-2.1 -4.6,-3.6 -1.1,-1.5 -1.9,-3.3 -2.3,-5.2 -0.4,-2 -0.6,-4.1 -0.6,-6.4 V 81.1 Z"
   id="path34"
   inkscape:connector-curvature="0"
   style="fill:#ec8d53" />
	<path
   class="st0"
   d="m 622.7,70.4 c 3,0 5.7,0.5 7.8,1.6 2.2,1.1 3.9,2.5 5.3,4.2 1.4,1.7 2.4,3.8 3.1,6 0.6,2.3 1,4.6 1,7 v 29.1 H 628.2 V 92.8 c 0,-1.4 -0.1,-2.8 -0.3,-4.2 -0.2,-1.5 -0.6,-2.8 -1.2,-4 -0.6,-1.2 -1.5,-2.2 -2.6,-3 -1.1,-0.8 -2.6,-1.2 -4.5,-1.2 -1.9,0 -3.5,0.4 -4.9,1.1 -1.4,0.7 -2.5,1.7 -3.4,2.9 -0.9,1.2 -1.6,2.5 -2,4 -0.5,1.5 -0.7,3 -0.7,4.6 v 25.5 H 597 V 45 h 11.7 v 33.3 h 0.2 c 0.5,-1 1.1,-1.9 2,-2.9 0.9,-0.9 1.9,-1.8 3.1,-2.5 1.2,-0.7 2.5,-1.3 4,-1.8 1.3,-0.5 3,-0.7 4.7,-0.7 z"
   id="path36"
   inkscape:connector-curvature="0"
   style="fill:#ec8d53" />
</g></g><g
     transform="matrix(1.3270122,0,0,1.3270122,-14.144627,-11.451601)"
     id="g906"><g
       id="g6"
       style="fill:#ec8d53;fill-opacity:1"
       transform="matrix(0.15722805,0,0,0.15722805,13.258327,18.768605)">
	<path
   class="st0"
   d="m 77.7,2.2 c -3.9,0 -7.5,2.1 -9.4,5.5 -2.9,5.1 -1,11.7 4.2,14.5 1.6,0.9 3.4,1.3 5.2,1.3 3.9,0 7.5,-2.1 9.4,-5.5 C 90,12.8 88.1,6.3 82.9,3.5 81.2,2.7 79.4,2.2 77.7,2.2 Z"
   id="path4"
   style="fill:#ec8d53;fill-opacity:1"
   inkscape:connector-curvature="0" />
</g><g
       id="g10"
       style="fill:#ec8d53;fill-opacity:1"
       transform="matrix(0.15722805,0,0,0.15722805,13.258327,18.768605)">
	<path
   class="st0"
   d="m 16,103.6 c -3.9,0 -7.5,2.1 -9.4,5.5 -2.9,5.1 -1,11.7 4.2,14.5 1.6,0.9 3.4,1.3 5.2,1.3 3.9,0 7.5,-2.1 9.4,-5.5 2.9,-5.2 1,-11.7 -4.2,-14.5 -1.6,-0.8 -3.4,-1.3 -5.2,-1.3 z"
   id="path8"
   style="fill:#ec8d53;fill-opacity:1"
   inkscape:connector-curvature="0" />
</g><g
       id="g14"
       style="fill:#ec8d53;fill-opacity:1"
       transform="matrix(0.15722805,0,0,0.15722805,13.258327,18.768605)">
	<path
   class="st0"
   d="m 136.4,109.1 c -3.9,0 -7.5,2.1 -9.4,5.5 -2.9,5.1 -1,11.7 4.2,14.5 1.6,0.9 3.4,1.3 5.2,1.3 3.9,0 7.5,-2.1 9.4,-5.5 2.9,-5.2 1,-11.7 -4.2,-14.5 -1.6,-0.9 -3.4,-1.3 -5.2,-1.3 z"
   id="path12"
   style="fill:#ec8d53;fill-opacity:1"
   inkscape:connector-curvature="0" />
</g><path
       class="st1"
       d="m 29.657213,20.891185 c -0.330179,-0.125783 -0.707527,0.04717 -0.849032,0.377347 -0.125782,0.330179 0.04717,0.707526 0.377347,0.849031 2.971611,1.132042 5.125635,3.490463 6.084726,6.304845 l -4.056484,1.084874 c -0.251565,-0.676081 -0.628912,-1.28927 -1.116319,-1.855291 -1.084873,-1.257825 -2.594263,-1.996797 -4.26088,-2.122579 -1.650895,-0.11006 -3.191729,0.440239 -4.37094,1.415052 l -2.877273,-2.845827 c 1.352161,-1.226379 3.034501,-2.091133 4.842624,-2.468481 -0.172951,-0.408793 -0.220119,-0.864754 -0.125783,-1.304992 -4.229434,0.833308 -7.814234,4.009315 -9.009167,8.301641 -0.39307,1.446498 -0.518852,2.924441 -0.361624,4.402385 0.03144,0.330179 0.314456,0.581744 0.644635,0.581744 0.03144,0 0.04717,0 0.07861,0 0.361624,-0.04717 0.613189,-0.361625 0.581743,-0.723249 -0.141505,-1.304993 -0.04717,-2.625709 0.314457,-3.899256 0.408792,-1.493666 1.147764,-2.830105 2.122578,-3.946424 l 2.892996,2.830105 c -0.754694,0.959091 -1.242101,2.138301 -1.336438,3.427571 -0.188674,2.720046 1.39933,5.141358 3.789196,6.147617 l -1.194933,3.930701 c -1.745232,-0.660357 -3.238898,-1.760954 -4.386663,-3.207452 -0.298733,0.345902 -0.67608,0.581744 -1.116319,0.691804 1.509389,1.949627 3.616245,3.396126 6.069003,4.072206 1.037705,0.283011 2.091133,0.424516 3.144561,0.424516 2.499926,0 4.93696,-0.817586 6.996648,-2.374144 0.28301,-0.220119 0.345902,-0.628912 0.125782,-0.911922 -0.220119,-0.283011 -0.628912,-0.345902 -0.911922,-0.125783 -2.499926,1.886737 -5.644487,2.547095 -8.663266,1.808123 l 1.194933,-3.946424 c 0.235842,0.04717 0.487407,0.07861 0.738972,0.09434 0.141505,0.01572 0.283011,0.01572 0.440239,0.01572 3.238898,0 5.958943,-2.531371 6.179062,-5.785992 0.03145,-0.471684 0.01572,-0.943368 -0.06289,-1.383607 l 4.056484,-1.084873 c 0.314456,1.556557 0.267287,3.191729 -0.172951,4.826901 -0.09434,0.314456 -0.188674,0.628912 -0.314456,0.943368 0.220119,0.04717 0.440238,0.125783 0.644635,0.235842 0.188673,0.11006 0.361624,0.235842 0.518852,0.39307 0.157228,-0.39307 0.298733,-0.801863 0.408793,-1.210656 1.588003,-5.817437 -1.430775,-11.807826 -7.059539,-13.96185 z m -9.213564,10.48711 c 0.172951,-2.609985 2.374143,-4.65395 4.984129,-4.65395 0.11006,0 0.235842,0 0.345902,0.01572 1.336438,0.09434 2.547094,0.691803 3.427571,1.698063 0.880477,1.006259 1.304993,2.295529 1.210656,3.631968 -0.09434,1.336438 -0.707526,2.547094 -1.713785,3.427571 -1.00626,0.880477 -2.29553,1.304993 -3.616246,1.210656 -2.751491,-0.188673 -4.826901,-2.57854 -4.638227,-5.330031 z"
       id="path40"
       style="fill:#ec8d53;fill-opacity:1;stroke-width:0.15722805"
       inkscape:connector-curvature="0" /><path
       class="st0"
       d="M 29.216974,28.422408 C 28.336497,27.400426 27.110118,26.787236 25.77368,26.6929 c -0.11006,-0.01572 -0.235842,-0.01572 -0.345902,-0.01572 -2.625708,0 -4.826901,2.059687 -5.015575,4.685396 -0.188673,2.767213 1.90246,5.172803 4.669673,5.361476 2.782937,0.204397 5.172803,-1.933905 5.361477,-4.669673 0.09434,-1.336438 -0.345902,-2.625708 -1.226379,-3.631968 z m -3.773473,6.383459 c -0.754695,0 -1.367884,0.06289 -1.367884,-0.345902 l 0.597466,-3.411848 c -0.345901,-0.235843 -0.566021,-0.628913 -0.566021,-1.084874 0,-0.723249 0.597467,-1.320716 1.320716,-1.320716 0.723249,0 1.320716,0.597467 1.320716,1.320716 0,0.440239 -0.22012,0.833309 -0.566021,1.084874 l 0.613189,3.380403 c 0,0.01572 0,0.01572 0,0.03144 0.01572,0.408793 -0.597466,0.345902 -1.352161,0.345902 z"
       id="path42"
       style="fill:#ec8d53;fill-opacity:1;stroke-width:0.15722805"
       inkscape:connector-curvature="0" /></g></g>
</svg>